<svg xmlns="http://www.w3.org/2000/svg" viewBox="0 0 64 64"><style>path,ellipse{fill:#17495f;stroke:#ddb967;stroke-width:1.8;stroke-linejoin:round}.panel{fill:#84eaff;stroke:#b8f7ff;stroke-width:1}.exhaust{fill:#84edff;stroke:#57a5cc}.ring{fill:none}</style><path class="exhaust" d="m28 49 4 11 4-11" fill="#70e0f2" stroke="#57a5cc"/><path d="m32 10 9 10 1 14-10 17-10-17 1-14Zm-11 8-10 5-7 17 8 9 4-15 8-7m19-9 10 5 7 17-8 9-4-15-8-7"/><path class="panel" d="m32 18 5 10-5 10-5-10Zm-19 9-4 12 3 4 3-12zm38 0 4 12-3 4-3-12Z"/><circle cx="32" cy="26" r="2" fill="#e7ffff"/></svg>
